#!OML:ASF E:\emotionWalksFemale\Project 1\Capture day 1\Session 1\Female1.ASF
:FULLY-SPECIFIED
:DEGREES
2838
root 9.43937 15.1696 17.9613 -3.53747 4.73537 -3.07828
lowerback 6.86459 -0.930505 -0.369452
upperback -5.03771 -1.38488 -1.13828
thorax -9.21491 -0.691681 -0.797032
lowerneck -1.88683 -7.30206 -11.5345
upperneck 9.6238 -10.7948 14.6391
head 4.59412 -5.16516 5.85194
rclavicle 5.1684e-015 -1.43125e-014
rhumerus -45.4398 4.98248 -80.6925
rradius 43.0768
rwrist 13.4506
rhand -2.08338 -53.1641
rfingers 7.12502
rthumb 23.5934 -81.7367
lclavicle 5.1684e-015 -1.43125e-014
lhumerus -43.9593 3.96001 74.3202
lradius 38.3533
lwrist -11.1052
lhand -7.86536 -31.6962
lfingers 7.12502
lthumb 18.0384 -2.51264
rfemur 9.53007 13.5857 38.5349
rtibia 17.6786
rfoot -11.4517 -23.5952
rtoes 7.19679
lfemur -30.2596 -4.34468 -18.7924
ltibia 52.3874
lfoot -15.6757 6.34251
ltoes -32.0555
2839
root 9.42533 15.1773 18.054 -3.91313 4.3621 -3.63125
lowerback 7.07369 -0.838394 -0.0608293
upperback -4.89899 -1.20893 -0.919017
thorax -9.18537 -0.617323 -0.761267
lowerneck -1.71524 -7.28974 -11.5952
upperneck 9.44638 -10.7843 14.7614
head 4.51993 -5.16754 5.90891
rclavicle 2.08724e-014 -4.77083e-015
rhumerus -45.2574 5.12704 -80.8532
rradius 42.914
rwrist 13.6858
rhand -2.27603 -53.5244
rfingers 7.12502
rthumb 23.4086 -82.1207
lclavicle 2.08724e-014 -4.77083e-015
lhumerus -44.3196 4.45854 73.9051
lradius 38.2158
lwrist -11.4003
lhand -7.63868 -31.2495
lfingers 7.12502
lthumb 18.2565 -2.08622
rfemur 10.5258 13.4682 39.373
rtibia 17.0977
rfoot -11.1555 -23.3482
rtoes 8.50667
lfemur -30.162 -4.33081 -18.2193
ltibia 50.9324
lfoot -15.6292 6.22051
ltoes -31.9762
2840
root 9.42636 15.1894 18.1279 -3.71588 4.18725 -3.58584
lowerback 7.14823 -0.796806 -0.10819
upperback -5.01265 -1.15998 -0.91645
thorax -9.35225 -0.590572 -0.737926
lowerneck -1.69413 -7.29302 -11.5633
upperneck 9.48998 -10.791 14.7066
head 4.52555 -5.17208 5.88628
rclavicle -2.52457e-014 -1.19271e-014
rhumerus -45.1115 5.2604 -81.0504
rradius 42.7449
rwrist 13.8787
rhand -2.32749 -53.7853
rfingers 7.12502
rthumb 23.3593 -82.3878
lclavicle -2.52457e-014 -1.19271e-014
lhumerus -44.5114 4.68213 73.578
lradius 37.7061
lwrist -11.544
lhand -7.62795 -30.6869
lfingers 7.12502
lthumb 18.2668 -1.52456
rfemur 10.7628 13.076 39.2319
rtibia 16.7619
rfoot -10.9167 -22.7752
rtoes 8.41047
lfemur -30.4951 -4.58289 -18.354
ltibia 49.273
lfoot -15.1895 6.31865
ltoes -32.9182
2841
root 9.43123 15.1947 18.2091 -3.58377 3.90488 -3.58287
lowerback 7.03878 -0.726142 -0.0277295
upperback -5.01771 -1.05629 -0.92737
thorax -9.29319 -0.54596 -0.811602
lowerneck -1.8501 -7.32996 -11.5549
upperneck 9.64484 -10.8364 14.6253
head 4.60026 -5.18814 5.84871
rclavicle 1.19271e-014 1.03368e-014
rhumerus -44.9113 5.33229 -81.2283
rradius 42.6567
rwrist 13.9892
rhand -2.05073 -53.55
rfingers 7.12502
rthumb 23.6247 -82.1186
lclavicle 1.19271e-014 1.03368e-014
lhumerus -44.4881 4.98366 73.193
lradius 37.0057
lwrist -11.3847
lhand -7.09476 -30.762
lfingers 7.12502
lthumb 18.7797 -1.64854
rfemur 11.288 12.7947 39.1561
rtibia 16.0303
rfoot -10.626 -22.2811
rtoes 7.91465
lfemur -30.7008 -5.0791 -18.343
ltibia 47.5748
lfoot -15.0652 6.18506
ltoes -30.873
2842
root 9.43536 15.1901 18.2803 -3.36797 3.77988 -3.28147
lowerback 6.75216 -0.658751 -0.222001
upperback -4.90384 -0.992895 -1.03942
thorax -8.99681 -0.506855 -0.833847
lowerneck -2.38864 -7.40411 -11.3477
upperneck 9.98977 -10.8979 14.2776
head 4.77475 -5.19663 5.67655
rclavicle -1.68967e-014 -1.66979e-014
rhumerus -44.405 5.38806 -81.4007
rradius 42.3878
rwrist 13.9216
rhand -2.12548 -53.2628
rfingers 7.12502
rthumb 23.553 -81.8406
lclavicle -1.68967e-014 -1.66979e-014
lhumerus -44.3064 5.63731 72.6371
lradius 36.637
lwrist -10.979
lhand -5.03256 -31.353
lfingers 7.12502
lthumb 20.7621 -2.44369
rfemur 11.577 12.4404 38.7415
rtibia 15.6686
rfoot -10.6431 -21.9589
rtoes 7.79029
lfemur -30.9309 -5.68512 -18.6591
ltibia 45.7816
lfoot -15.1019 5.89438
ltoes -25.0593
2843
root 9.42341 15.173 18.3665 -3.76652 3.32959 -4.04284
lowerback 6.82171 -0.524091 0.33737
upperback -4.57394 -0.728801 -0.781421
thorax -8.67787 -0.402075 -0.912516
lowerneck -2.24632 -7.46178 -11.7269
upperneck 9.51422 -10.9751 14.78
head 4.66701 -5.24086 5.89927
rclavicle 7.55382e-015 3.97569e-015
rhumerus -43.8644 5.52462 -81.5981
rradius 42.0251
rwrist 13.868
rhand -2.62008 -53.5456
rfingers 7.12502
rthumb 23.0785 -82.1836
lclavicle 7.55382e-015 3.97569e-015
lhumerus -44.2162 5.99521 72.3672
lradius 36.2589
lwrist -11.5153
lhand -5.24845 -31.0919
lfingers 7.12502
lthumb 20.5547 -2.16004
rfemur 12.614 12.4868 39.8415
rtibia 15.0289
rfoot -10.4635 -21.9288
rtoes 8.15921
lfemur -30.7114 -5.77377 -17.7794
ltibia 44.2277
lfoot -15.3707 5.53504
ltoes -17.4232
2844
root 9.42859 15.174 18.4433 -3.56382 3.11964 -3.87994
lowerback 7.38508 -0.42683 0.371192
upperback -5.05234 -0.60767 -0.8962
thorax -9.53358 -0.353579 -1.06862
lowerneck -1.79258 -7.51192 -11.8843
upperneck 9.66849 -11.1123 14.8982
head 4.66977 -5.32634 5.9691
rclavicle -2.38542e-015 -4.77083e-015
rhumerus -44.4404 5.63714 -81.8753
rradius 41.8999
rwrist 14.0704
rhand -2.66035 -53.9068
rfingers 7.12502
rthumb 23.0399 -82.5496
lclavicle -2.38542e-015 -4.77083e-015
lhumerus -45.153 5.87594 71.9754
lradius 36.1171
lwrist -11.7025
lhand -5.27514 -30.8336
lfingers 7.12502
lthumb 20.529 -1.89897
rfemur 13.1736 12.106 39.531
rtibia 14.1593
rfoot -10.6723 -21.3918
rtoes 9.52216
lfemur -30.9621 -6.2393 -17.9531
ltibia 42.6589
lfoot -15.2962 6.20943
ltoes -22.3935
2845
root 9.42845 15.1688 18.5255 -3.50852 2.7682 -4.0568
lowerback 7.27164 -0.337974 0.48787
upperback -5.02094 -0.465746 -0.793455
thorax -9.42837 -0.287942 -1.047
lowerneck -1.87301 -7.56631 -11.8254
upperneck 9.75874 -11.1716 14.7194
head 4.70578 -5.35554 5.89329
rclavicle 7.95139e-016 3.97569e-015
rhumerus -44.1339 5.86104 -82.0355
rradius 41.6075
rwrist 14.297
rhand -2.42594 -53.7867
rfingers 7.12502
rthumb 23.2648 -82.4012
lclavicle 7.95139e-016 3.97569e-015
lhumerus -45.4118 6.26887 71.6707
lradius 35.8571
lwrist -12.0422
lhand -5.25039 -30.6115
lfingers 7.12502
lthumb 20.5528 -1.67944
rfemur 13.9687 11.8137 39.6571
rtibia 13.1011
rfoot -10.5307 -20.8957
rtoes 10.9477
lfemur -31.1134 -6.68787 -17.6661
ltibia 41.2044
lfoot -15.4176 6.55875
ltoes -21.6823
2846
root 9.4284 15.1727 18.6058 -3.40286 2.41444 -4.23363
lowerback 6.8203 -0.221269 0.690646
upperback -4.75376 -0.2822 -0.742261
thorax -8.86573 -0.20603 -1.13378
lowerneck -2.11326 -7.64566 -11.7812
upperneck 9.56159 -11.2287 14.6485
head 4.68962 -5.37747 5.84865
rclavicle 7.7526e-015 4.77083e-015
rhumerus -43.3936 5.97302 -82.213
rradius 41.2612
rwrist 14.41
rhand -2.33741 -53.7305
rfingers 7.12502
rthumb 23.3497 -82.3343
lclavicle 7.7526e-015 4.77083e-015
lhumerus -45.2121 6.6691 71.4134
lradius 35.4833
lwrist -12.3636
lhand -5.19639 -30.4309
lfingers 7.12502
lthumb 20.6047 -1.50451
rfemur 14.4913 11.5499 39.7586
rtibia 12.4157
rfoot -10.0114 -20.4094
rtoes 10.2576
lfemur -31.2226 -7.18727 -17.355
ltibia 39.5778
lfoot -15.4109 7.33763
ltoes -23.9843
